<svg version="1.1" id="Layer_1" xmlns="http://www.w3.org/2000/svg" xmlns:xlink="http://www.w3.org/1999/xlink" x="0px" y="0px"
	 width="100%" viewBox="0 0 1080 1080" enable-background="new 0 0 1080 1080" xml:space="preserve">
<path fill="#000000" opacity="1.000000" stroke="none" 
	d="
M600.000000,1081.000000 
	C400.023010,1081.000000 200.546036,1081.000000 1.034532,1081.000000 
	C1.034532,721.064575 1.034532,361.129120 1.034532,1.096845 
	C360.893860,1.096845 720.787720,1.096845 1080.840820,1.096845 
	C1080.840820,360.999939 1080.840820,720.999939 1080.840820,1081.000000 
	C920.795349,1081.000000 760.647644,1081.000000 600.000000,1081.000000 
M679.128235,881.802368 
	C683.260864,885.607666 684.074158,878.578796 687.258911,879.651917 
	C687.139160,877.830933 687.041809,876.350647 687.250183,874.218933 
	C688.987793,872.953857 690.725342,871.688843 693.321777,869.798462 
	C693.797302,878.920898 694.206543,886.770996 694.628845,894.872559 
	C700.049927,894.872559 705.408325,894.872559 710.733765,894.872559 
	C710.733765,873.511169 710.733765,852.448303 710.733765,829.528992 
	C707.101868,831.673218 704.170105,832.819275 702.014893,834.807251 
	C698.361267,838.177551 695.214355,842.094604 691.823547,845.753174 
	C687.821594,850.071289 683.786804,854.359009 679.642578,858.792175 
	C672.096008,850.418091 664.874207,842.604431 657.909912,834.567627 
	C655.485168,831.769409 653.006409,830.316833 649.056458,831.617676 
	C649.056458,852.562134 649.056458,873.600647 649.056458,894.905151 
	C654.448425,894.905151 659.699890,894.905151 665.503296,894.905151 
	C665.503296,885.961487 665.503296,877.108215 665.503296,867.510986 
	C668.268555,870.181519 670.411865,872.176880 672.468628,874.257812 
	C674.684937,876.500061 676.820190,878.822327 679.128235,881.802368 
M574.236450,29.826159 
	C536.834778,32.755020 499.801605,38.289177 463.130646,46.112785 
	C418.996765,55.528587 375.385590,66.820503 333.873322,84.961021 
	C319.207794,91.369766 304.976624,98.595856 293.243896,109.890846 
	C290.341522,112.684921 289.307343,115.334785 290.432648,119.505737 
	C294.375031,134.118454 297.843597,148.858795 301.511505,163.545807 
	C316.303192,222.774521 331.076019,282.007996 345.974579,341.209808 
	C346.726471,344.197571 346.109222,345.631683 343.537933,347.189209 
	C337.420044,350.894928 331.484924,354.908478 325.543793,358.898682 
	C310.102112,369.269562 295.927094,381.029816 285.368866,396.587128 
	C273.417664,414.197021 274.903625,437.654114 289.978149,452.561890 
	C297.085388,459.590515 305.431274,465.901398 314.263214,470.545929 
	C336.396576,482.185364 360.792053,486.361237 385.377258,488.879211 
	C430.199219,493.469849 474.903351,491.350189 519.473450,485.396820 
	C530.809387,483.882629 542.104858,482.065552 553.222473,480.416809 
	C570.496521,514.569214 597.500549,534.483704 635.822998,532.194092 
	C683.059753,529.371887 709.291992,500.979309 718.454956,455.618469 
	C724.513733,456.962891 726.288269,459.221100 726.292725,465.791321 
	C726.314636,498.289368 726.270081,530.787476 726.336060,563.285400 
	C726.363953,577.027893 735.373596,587.670532 748.073792,588.879517 
	C752.534424,589.304138 757.073669,589.191956 761.560303,588.976318 
	C766.270264,588.750122 769.310120,585.334351 769.277893,580.847046 
	C769.245361,576.320679 766.256714,573.140015 761.474976,572.764587 
	C759.155273,572.582397 756.811523,572.700623 754.478638,572.693604 
	C744.889465,572.664795 742.370605,570.140869 742.369629,560.556335 
	C742.366394,528.558289 742.427612,496.559998 742.326355,464.562256 
	C742.286194,451.865448 735.450684,442.639221 724.161560,439.528900 
	C722.134766,438.970459 720.018555,438.736755 718.084778,438.379272 
	C716.011963,430.355957 716.253540,430.771118 723.022827,426.832367 
	C738.966431,417.555481 755.124817,408.526489 770.320007,398.118011 
	C786.130005,387.288452 799.190491,373.509674 806.858826,355.402435 
	C814.540588,337.263336 811.040466,316.634369 796.520752,304.149170 
	C789.338623,297.973419 780.551636,293.311737 771.872192,289.304901 
	C755.135315,281.578339 736.982361,278.454376 718.969482,275.187958 
	C715.496887,274.558258 714.427673,273.081207 713.990479,269.743683 
	C711.957520,254.224014 709.629944,238.742966 707.407349,223.248169 
	C702.253479,187.317490 697.106079,151.385910 691.943054,115.456543 
	C688.462463,91.234581 685.036011,67.004097 681.327271,42.816982 
	C681.019470,40.809364 679.107300,38.105556 677.305298,37.436760 
	C670.485352,34.905579 663.528748,32.363670 656.397522,31.117722 
	C629.427185,26.405539 602.284790,27.732376 574.236450,29.826159 
M636.550110,669.950989 
	C643.033020,669.614319 649.566101,669.675659 655.989380,668.865845 
	C674.693665,666.507507 692.036438,660.740295 705.710144,646.947632 
	C720.688293,631.839233 723.315002,608.047668 712.036987,590.397644 
	C711.054871,588.860657 709.527283,587.672241 708.253052,586.321899 
	C707.852722,586.605042 707.452332,586.888123 707.052002,587.171204 
	C707.052002,588.141541 706.908142,589.137146 707.073853,590.078308 
	C709.171326,601.988403 704.805359,611.459290 694.447327,617.359680 
	C676.727722,627.453674 650.764832,624.893616 635.799011,610.442627 
	C626.738831,601.694153 619.150879,591.434326 610.724243,582.012085 
	C603.569885,574.012390 595.768860,566.735107 584.958862,563.966003 
	C570.177368,560.179382 556.664246,563.342163 544.370789,571.939514 
	C520.094177,556.696533 498.908356,559.318665 479.402313,580.284241 
	C472.951111,587.218079 467.199738,594.804749 461.155701,602.115479 
	C444.671082,622.055115 424.811676,627.576904 399.905548,620.004883 
	C390.380157,617.109009 383.462006,610.843750 381.534149,600.811523 
	C380.527954,595.575317 381.356781,589.986572 381.356781,584.373352 
	C380.531219,585.245300 379.568848,586.108093 378.786316,587.111267 
	C367.952515,600.999329 366.510620,621.590942 375.385559,637.002075 
	C384.074036,652.089539 397.964111,660.331543 414.069031,664.917053 
	C451.039795,675.443604 485.983673,669.766296 518.617737,649.998413 
	C527.779846,644.448547 536.065674,637.452332 544.851379,631.048096 
	C570.287048,654.542786 600.160828,668.688843 636.550110,669.950989 
M549.126587,767.719360 
	C560.421936,742.549927 571.855103,717.452698 587.565613,695.148438 
	C576.336487,691.353088 565.009766,688.440063 554.529114,683.668762 
	C547.232849,680.347107 541.575928,680.316284 534.268188,683.595764 
	C523.664124,688.354492 512.256042,691.321655 500.945801,695.135498 
	C518.916199,720.674683 531.166016,749.406677 544.208435,778.519470 
	C546.026367,774.659363 547.487427,771.556885 549.126587,767.719360 
M232.875000,848.087219 
	C241.498596,843.896667 247.455078,844.945862 253.833466,851.690186 
	C254.446320,852.338257 255.394638,853.044189 256.205994,853.067322 
	C260.815125,853.199036 265.429932,853.131165 270.079193,853.131165 
	C268.864624,838.442139 253.678528,828.707581 236.213470,830.904297 
	C217.501984,833.257874 205.627884,850.376770 209.138809,869.937927 
	C212.466721,888.479431 229.792389,899.209961 249.494583,895.127991 
	C263.973755,892.128235 274.513580,878.937256 271.065125,859.163330 
	C261.300415,859.163330 251.526703,859.163330 241.552475,859.163330 
	C241.552475,863.803650 241.552475,868.210022 241.552475,873.112488 
	C245.866852,873.112488 249.924591,873.112488 254.478271,873.112488 
	C252.049927,879.166931 247.570648,880.640686 242.361740,880.787720 
	C235.856537,880.971436 230.600922,878.681885 227.542358,872.621887 
	C223.513184,864.638916 225.512558,854.624634 232.875000,848.087219 
M875.854980,867.500061 
	C875.854980,855.692017 875.854980,843.883911 875.854980,831.784058 
	C870.168396,831.784058 864.757019,831.784058 858.833191,831.784058 
	C858.833191,841.886536 858.833191,851.734192 858.833191,861.581848 
	C858.046814,862.191101 857.260498,862.800293 856.474121,863.409546 
	C847.632568,853.685791 838.771179,843.979919 829.962341,834.226746 
	C827.540894,831.545593 824.855225,830.202698 821.280640,831.663513 
	C821.280640,852.826660 821.280640,873.876099 821.280640,894.912537 
	C826.911255,894.912537 832.170044,894.912537 838.021118,894.912537 
	C838.021118,884.810120 838.021118,874.983459 838.021118,865.156738 
	C838.785156,864.599487 839.549133,864.042297 840.313171,863.485046 
	C848.961121,872.915649 857.680603,882.282227 866.214233,891.815125 
	C868.826843,894.733765 871.664429,895.939575 875.854980,894.753784 
	C875.854980,886.094055 875.854980,877.297058 875.854980,867.500061 
M397.225861,855.276978 
	C390.078003,848.313721 383.060059,841.208435 375.700592,834.476501 
	C373.583160,832.539673 370.481323,831.679077 366.916992,829.858215 
	C366.916992,852.701782 366.916992,873.760559 366.916992,894.991699 
	C372.439362,894.991699 377.716797,894.991699 383.584778,894.991699 
	C383.584778,884.963318 383.584778,875.104065 383.584778,864.163574 
	C393.825470,874.101868 403.285065,883.138794 412.553436,892.367737 
	C415.193970,894.996826 417.829987,895.953491 421.128540,894.748352 
	C421.128540,873.561340 421.128540,852.663025 421.128540,831.870239 
	C415.535278,831.870239 410.304443,831.870239 404.523468,831.870239 
	C404.523468,841.995972 404.523468,851.769226 404.523468,862.205444 
	C401.829468,859.653076 399.779266,857.710693 397.225861,855.276978 
M618.313965,868.763611 
	C618.313965,864.306458 618.313965,859.849304 618.313965,854.937256 
	C611.018433,854.937256 604.112671,854.937256 597.230957,854.937256 
	C597.230957,851.757446 597.230957,849.048523 597.230957,846.026917 
	C605.047546,846.026917 612.488586,846.026917 620.091492,846.026917 
	C620.091492,841.109924 620.091492,836.524170 620.091492,831.882812 
	C606.817383,831.882812 593.777893,831.882812 580.805420,831.882812 
	C580.805420,853.128479 580.805420,874.014526 580.805420,894.900085 
	C594.378723,894.900085 607.620422,894.900085 620.843750,894.900085 
	C620.843750,890.072266 620.843750,885.537476 620.843750,880.619995 
	C612.726501,880.619995 604.965881,880.619995 597.117859,880.619995 
	C597.117859,876.815247 597.117859,873.409790 597.117859,869.447449 
	C604.165283,869.447449 610.950500,869.447449 618.313965,868.763611 
M315.501343,895.170959 
	C323.253662,895.170959 331.005981,895.170959 338.672974,895.170959 
	C338.672974,890.009033 338.672974,885.587708 338.672974,880.587891 
	C330.520142,880.587891 322.630951,880.587891 314.613922,880.587891 
	C314.613922,876.737793 314.613922,873.479431 314.613922,869.722900 
	C321.755951,869.722900 328.669250,869.722900 335.853485,869.722900 
	C335.853485,864.658630 335.853485,860.091980 335.853485,854.903931 
	C328.718170,854.903931 321.679108,854.903931 314.719696,854.903931 
	C314.719696,851.695496 314.719696,849.109619 314.719696,846.052673 
	C322.626953,846.052673 330.193268,846.052673 337.754944,846.052673 
	C337.754944,841.007690 337.754944,836.446777 337.754944,831.943359 
	C324.418457,831.943359 311.383942,831.943359 298.377686,831.943359 
	C298.377686,853.137512 298.377686,873.901855 298.377686,895.172546 
	C303.932587,895.172546 309.217346,895.172546 315.501343,895.170959 
M764.970886,887.270630 
	C767.965576,887.270569 770.989746,887.534058 773.947510,887.203613 
	C777.638489,886.791260 779.859131,887.945312 781.048523,891.583069 
	C781.492004,892.939392 782.904358,894.885132 783.995422,894.967529 
	C788.863220,895.335754 793.774536,895.127502 799.356689,895.127502 
	C798.459412,892.787842 797.963196,891.234985 797.285400,889.765930 
	C788.727234,871.216125 780.104492,852.695984 771.613647,834.115417 
	C770.545166,831.777283 769.535767,830.422058 766.597046,830.432678 
	C763.612549,830.443542 762.255676,831.511780 761.063477,834.143738 
	C752.636658,852.748291 744.028259,871.270447 735.522095,889.839233 
	C734.826355,891.357971 734.460510,893.027710 733.764893,895.171326 
	C738.419189,895.171326 742.241577,894.961792 746.028748,895.236755 
	C749.128601,895.461853 751.119202,894.584412 751.986023,891.498901 
	C752.924133,888.159363 754.918762,886.551270 758.601196,887.225098 
	C760.371338,887.549072 762.251038,887.274597 764.970886,887.270630 
M464.501343,831.544739 
	C458.204803,831.544739 451.908264,831.544739 445.418457,831.544739 
	C445.418457,836.601624 445.418457,841.157043 445.418457,846.167969 
	C450.623718,846.167969 455.551422,846.167969 460.963562,846.167969 
	C460.963562,862.681213 460.963562,878.746582 460.963562,894.892578 
	C466.541229,894.892578 471.608551,894.892578 477.153259,894.892578 
	C477.153259,878.547852 477.153259,862.476501 477.153259,845.941833 
	C482.535400,845.941833 487.447357,845.941833 492.320587,845.941833 
	C492.320587,840.919006 492.320587,836.380493 492.320587,831.544861 
	C483.129181,831.544861 474.315094,831.544861 464.501343,831.544739 
M585.839294,956.501465 
	C585.839294,966.632874 585.839294,976.764221 585.839294,987.228210 
	C594.148865,987.228210 602.114563,987.392944 610.069824,987.174805 
	C616.168213,987.007629 620.365173,983.759766 622.453735,978.009766 
	C624.750549,971.686340 623.400330,966.856812 618.271362,962.456055 
	C625.989563,951.534546 618.273071,940.461243 608.645508,939.410950 
	C601.288696,938.608459 593.774231,939.251465 585.839294,939.251465 
	C585.839294,944.935913 585.839294,950.218994 585.839294,956.501465 
M528.996582,831.533630 
	C524.735596,831.533630 520.474609,831.533630 516.236084,831.533630 
	C516.236084,853.065430 516.236084,873.950562 516.236084,894.894714 
	C529.379150,894.894714 542.264038,894.894714 555.308105,894.894714 
	C555.308105,890.080627 555.308105,885.542297 555.308105,880.463806 
	C547.599976,880.463806 540.213074,880.463806 532.395996,880.463806 
	C532.395996,878.298950 532.394592,876.676025 532.396179,875.053101 
	C532.409241,861.916870 532.440857,848.780579 532.415161,835.644470 
	C532.411621,833.847961 533.303589,831.315369 528.996582,831.533630 
M676.500061,962.856323 
	C664.089966,962.856323 651.679810,962.856323 639.421082,962.856323 
	C639.421082,965.569336 639.421082,967.502197 639.421082,969.570984 
	C704.692139,969.570984 769.686646,969.570984 834.637451,969.570984 
	C834.637451,967.167114 834.637451,965.110596 834.637451,962.856323 
	C782.031921,962.856323 729.765991,962.856323 676.500061,962.856323 
M352.500061,963.813965 
	C320.239166,963.813965 287.978271,963.813965 255.754196,963.813965 
	C255.754196,966.501831 255.754196,968.550781 255.754196,970.566223 
	C321.073547,970.566223 385.975250,970.566223 450.990173,970.566223 
	C450.990173,968.264893 450.990173,966.313599 450.990173,963.815369 
	C418.389099,963.815369 385.944611,963.815369 352.500061,963.813965 
M563.312988,962.453247 
	C563.312988,954.829346 563.312988,947.205383 563.312988,939.369019 
	C559.294861,939.369019 555.706970,939.369019 551.557434,939.369019 
	C551.557434,949.455139 551.492737,959.398254 551.593506,969.339661 
	C551.627441,972.684753 550.697205,975.125244 547.342834,976.373108 
	C541.632568,978.497314 536.992371,975.400513 536.962402,969.249573 
	C536.914124,959.330200 536.949402,949.410400 536.949402,939.524536 
	C532.646545,939.524536 528.944336,939.524536 525.047424,939.524536 
	C525.047424,949.881592 525.002075,959.852051 525.059387,969.822021 
	C525.124329,981.114502 532.394226,988.004028 544.191223,988.065369 
	C555.968750,988.126526 563.235840,981.232483 563.311096,969.918884 
	C563.325500,967.756897 563.313049,965.594849 563.312988,962.453247 
M486.530304,975.064270 
	C487.528503,975.063843 488.527405,975.088501 489.524750,975.059143 
	C498.834290,974.784973 505.490967,968.450745 506.184692,959.217224 
	C506.968079,948.790833 501.523682,940.558411 492.054230,939.596313 
	C484.203888,938.798828 476.208099,939.433167 468.199615,939.433167 
	C468.199615,955.488708 468.199615,971.324280 468.199615,987.029175 
	C472.342407,987.029175 476.114868,987.029175 480.304016,987.029175 
	C480.304016,982.990417 480.304016,979.235718 480.304016,975.065552 
	C482.340424,975.065552 483.970093,975.065552 486.530304,975.064270 
z"/>
<path fill="#FEFEFE" opacity="1.000000" stroke="none" 
	d="
M574.699219,29.793730 
	C602.284790,27.732376 629.427185,26.405539 656.397522,31.117722 
	C663.528748,32.363670 670.485352,34.905579 677.305298,37.436760 
	C679.107300,38.105556 681.019470,40.809364 681.327271,42.816982 
	C685.036011,67.004097 688.462463,91.234581 691.943054,115.456543 
	C697.106079,151.385910 702.253479,187.317490 707.407349,223.248169 
	C709.629944,238.742966 711.957520,254.224014 713.990479,269.743683 
	C714.427673,273.081207 715.496887,274.558258 718.969482,275.187958 
	C736.982361,278.454376 755.135315,281.578339 771.872192,289.304901 
	C780.551636,293.311737 789.338623,297.973419 796.520752,304.149170 
	C811.040466,316.634369 814.540588,337.263336 806.858826,355.402435 
	C799.190491,373.509674 786.130005,387.288452 770.320007,398.118011 
	C755.124817,408.526489 738.966431,417.555481 723.022827,426.832367 
	C716.253540,430.771118 716.011963,430.355957 718.084778,438.379272 
	C720.018555,438.736755 722.134766,438.970459 724.161560,439.528900 
	C735.450684,442.639221 742.286194,451.865448 742.326355,464.562256 
	C742.427612,496.559998 742.366394,528.558289 742.369629,560.556335 
	C742.370605,570.140869 744.889465,572.664795 754.478638,572.693604 
	C756.811523,572.700623 759.155273,572.582397 761.474976,572.764587 
	C766.256714,573.140015 769.245361,576.320679 769.277893,580.847046 
	C769.310120,585.334351 766.270264,588.750122 761.560303,588.976318 
	C757.073669,589.191956 752.534424,589.304138 748.073792,588.879517 
	C735.373596,587.670532 726.363953,577.027893 726.336060,563.285400 
	C726.270081,530.787476 726.314636,498.289368 726.292725,465.791321 
	C726.288269,459.221100 724.513733,456.962891 718.454956,455.618469 
	C709.291992,500.979309 683.059753,529.371887 635.822998,532.194092 
	C597.500549,534.483704 570.496521,514.569214 553.222473,480.416809 
	C542.104858,482.065552 530.809387,483.882629 519.473450,485.396820 
	C474.903351,491.350189 430.199219,493.469849 385.377258,488.879211 
	C360.792053,486.361237 336.396576,482.185364 314.263214,470.545929 
	C305.431274,465.901398 297.085388,459.590515 289.978149,452.561890 
	C274.903625,437.654114 273.417664,414.197021 285.368866,396.587128 
	C295.927094,381.029816 310.102112,369.269562 325.543793,358.898682 
	C331.484924,354.908478 337.420044,350.894928 343.537933,347.189209 
	C346.109222,345.631683 346.726471,344.197571 345.974579,341.209808 
	C331.076019,282.007996 316.303192,222.774521 301.511505,163.545807 
	C297.843597,148.858795 294.375031,134.118454 290.432648,119.505737 
	C289.307343,115.334785 290.341522,112.684921 293.243896,109.890846 
	C304.976624,98.595856 319.207794,91.369766 333.873322,84.961021 
	C375.385590,66.820503 418.996765,55.528587 463.130646,46.112785 
	C499.801605,38.289177 536.834778,32.755020 574.699219,29.793730 
M509.619751,411.048767 
	C536.362061,408.457306 562.639099,403.365753 588.431458,395.907623 
	C635.025024,382.434601 678.410828,362.466187 717.027527,332.634705 
	C723.006897,328.015656 725.269348,323.901031 723.134094,316.344147 
	C720.172729,305.863739 718.531799,295.010284 716.248840,283.944855 
	C663.463318,323.923279 603.326477,344.738434 539.815735,356.950409 
	C476.295197,369.164276 412.713928,372.065338 348.966278,354.493011 
	C351.306641,367.428833 353.717468,379.800690 355.685425,392.242584 
	C356.239105,395.742889 357.589264,397.216003 360.937347,398.259796 
	C409.270416,413.327454 458.662537,415.913666 509.619751,411.048767 
M684.420959,443.912262 
	C652.042297,456.587311 618.722595,466.188019 584.600525,473.974945 
	C585.077332,475.008484 585.274231,475.636414 585.623596,476.163300 
	C597.553772,494.157745 614.356567,503.145355 635.885559,501.900146 
	C656.608826,500.701599 671.871460,490.197876 681.681213,471.976013 
	C686.011353,463.932526 687.848328,455.171265 687.707703,446.024933 
	C687.682922,444.414429 688.059998,442.236176 684.420959,443.912262 
M456.360352,113.823868 
	C472.740479,112.047829 489.205322,110.835655 505.484619,108.388794 
	C552.151123,101.374596 597.491943,88.787178 642.426575,74.656342 
	C652.033325,71.635262 661.537476,68.288246 671.288208,65.024704 
	C670.316833,60.934402 669.482605,57.421619 668.594360,53.681126 
	C588.166565,83.472061 505.780121,103.698265 420.939270,113.864174 
	C432.423126,113.864174 443.906952,113.864174 456.360352,113.823868 
z"/>
<path fill="#FCFCFC" opacity="1.000000" stroke="none" 
	d="
M636.062134,669.950073 
	C600.160828,668.688843 570.287048,654.542786 544.851379,631.048096 
	C536.065674,637.452332 527.779846,644.448547 518.617737,649.998413 
	C485.983673,669.766296 451.039795,675.443604 414.069031,664.917053 
	C397.964111,660.331543 384.074036,652.089539 375.385559,637.002075 
	C366.510620,621.590942 367.952515,600.999329 378.786316,587.111267 
	C379.568848,586.108093 380.531219,585.245300 381.356781,584.373352 
	C381.356781,589.986572 380.527954,595.575317 381.534149,600.811523 
	C383.462006,610.843750 390.380157,617.109009 399.905548,620.004883 
	C424.811676,627.576904 444.671082,622.055115 461.155701,602.115479 
	C467.199738,594.804749 472.951111,587.218079 479.402313,580.284241 
	C498.908356,559.318665 520.094177,556.696533 544.370789,571.939514 
	C556.664246,563.342163 570.177368,560.179382 584.958862,563.966003 
	C595.768860,566.735107 603.569885,574.012390 610.724243,582.012085 
	C619.150879,591.434326 626.738831,601.694153 635.799011,610.442627 
	C650.764832,624.893616 676.727722,627.453674 694.447327,617.359680 
	C704.805359,611.459290 709.171326,601.988403 707.073853,590.078308 
	C706.908142,589.137146 707.052002,588.141541 707.052002,587.171204 
	C707.452332,586.888123 707.852722,586.605042 708.253052,586.321899 
	C709.527283,587.672241 711.054871,588.860657 712.036987,590.397644 
	C723.315002,608.047668 720.688293,631.839233 705.710144,646.947632 
	C692.036438,660.740295 674.693665,666.507507 655.989380,668.865845 
	C649.566101,669.675659 643.033020,669.614319 636.062134,669.950073 
z"/>
<path fill="#FBFAFB" opacity="1.000000" stroke="none" 
	d="
M549.037598,768.086914 
	C547.487427,771.556885 546.026367,774.659363 544.208435,778.519470 
	C531.166016,749.406677 518.916199,720.674683 500.945801,695.135498 
	C512.256042,691.321655 523.664124,688.354492 534.268188,683.595764 
	C541.575928,680.316284 547.232849,680.347107 554.529114,683.668762 
	C565.009766,688.440063 576.336487,691.353088 587.565613,695.148438 
	C571.855103,717.452698 560.421936,742.549927 549.037598,768.086914 
z"/>
<path fill="#F9F9F9" opacity="1.000000" stroke="none" 
	d="
M678.990784,881.109680 
	C676.820190,878.822327 674.684937,876.500061 672.468628,874.257812 
	C670.411865,872.176880 668.268555,870.181519 665.503296,867.510986 
	C665.503296,877.108215 665.503296,885.961487 665.503296,894.905151 
	C659.699890,894.905151 654.448425,894.905151 649.056458,894.905151 
	C649.056458,873.600647 649.056458,852.562134 649.056458,831.617676 
	C653.006409,830.316833 655.485168,831.769409 657.909912,834.567627 
	C664.874207,842.604431 672.096008,850.418091 679.642578,858.792175 
	C683.786804,854.359009 687.821594,850.071289 691.823547,845.753174 
	C695.214355,842.094604 698.361267,838.177551 702.014893,834.807251 
	C704.170105,832.819275 707.101868,831.673218 710.733765,829.528992 
	C710.733765,852.448303 710.733765,873.511169 710.733765,894.872559 
	C705.408325,894.872559 700.049927,894.872559 694.628845,894.872559 
	C694.206543,886.770996 693.797302,878.920898 693.321777,869.798462 
	C690.725342,871.688843 688.987793,872.953857 686.783691,874.678833 
	C683.875061,877.129089 681.432922,879.119385 678.990784,881.109680 
z"/>
<path fill="#F7F7F7" opacity="1.000000" stroke="none" 
	d="
M232.563721,848.311646 
	C225.512558,854.624634 223.513184,864.638916 227.542358,872.621887 
	C230.600922,878.681885 235.856537,880.971436 242.361740,880.787720 
	C247.570648,880.640686 252.049927,879.166931 254.478271,873.112488 
	C249.924591,873.112488 245.866852,873.112488 241.552475,873.112488 
	C241.552475,868.210022 241.552475,863.803650 241.552475,859.163330 
	C251.526703,859.163330 261.300415,859.163330 271.065125,859.163330 
	C274.513580,878.937256 263.973755,892.128235 249.494583,895.127991 
	C229.792389,899.209961 212.466721,888.479431 209.138809,869.937927 
	C205.627884,850.376770 217.501984,833.257874 236.213470,830.904297 
	C253.678528,828.707581 268.864624,838.442139 270.079193,853.131165 
	C265.429932,853.131165 260.815125,853.199036 256.205994,853.067322 
	C255.394638,853.044189 254.446320,852.338257 253.833466,851.690186 
	C247.455078,844.945862 241.498596,843.896667 232.563721,848.311646 
z"/>
<path fill="#F8F8F8" opacity="1.000000" stroke="none" 
	d="
M875.854980,868.000122 
	C875.854980,877.297058 875.854980,886.094055 875.854980,894.753784 
	C871.664429,895.939575 868.826843,894.733765 866.214233,891.815125 
	C857.680603,882.282227 848.961121,872.915649 840.313171,863.485046 
	C839.549133,864.042297 838.785156,864.599487 838.021118,865.156738 
	C838.021118,874.983459 838.021118,884.810120 838.021118,894.912537 
	C832.170044,894.912537 826.911255,894.912537 821.280640,894.912537 
	C821.280640,873.876099 821.280640,852.826660 821.280640,831.663513 
	C824.855225,830.202698 827.540894,831.545593 829.962341,834.226746 
	C838.771179,843.979919 847.632568,853.685791 856.474121,863.409546 
	C857.260498,862.800293 858.046814,862.191101 858.833191,861.581848 
	C858.833191,851.734192 858.833191,841.886536 858.833191,831.784058 
	C864.757019,831.784058 870.168396,831.784058 875.854980,831.784058 
	C875.854980,843.883911 875.854980,855.692017 875.854980,868.000122 
z"/>
<path fill="#FBFBFB" opacity="1.000000" stroke="none" 
	d="
M397.477478,855.522583 
	C399.779266,857.710693 401.829468,859.653076 404.523468,862.205444 
	C404.523468,851.769226 404.523468,841.995972 404.523468,831.870239 
	C410.304443,831.870239 415.535278,831.870239 421.128540,831.870239 
	C421.128540,852.663025 421.128540,873.561340 421.128540,894.748352 
	C417.829987,895.953491 415.193970,894.996826 412.553436,892.367737 
	C403.285065,883.138794 393.825470,874.101868 383.584778,864.163574 
	C383.584778,875.104065 383.584778,884.963318 383.584778,894.991699 
	C377.716797,894.991699 372.439362,894.991699 366.916992,894.991699 
	C366.916992,873.760559 366.916992,852.701782 366.916992,829.858215 
	C370.481323,831.679077 373.583160,832.539673 375.700592,834.476501 
	C383.060059,841.208435 390.078003,848.313721 397.477478,855.522583 
z"/>
<path fill="#FAFAFA" opacity="1.000000" stroke="none" 
	d="
M618.024841,869.105530 
	C610.950500,869.447449 604.165283,869.447449 597.117859,869.447449 
	C597.117859,873.409790 597.117859,876.815247 597.117859,880.619995 
	C604.965881,880.619995 612.726501,880.619995 620.843750,880.619995 
	C620.843750,885.537476 620.843750,890.072266 620.843750,894.900085 
	C607.620422,894.900085 594.378723,894.900085 580.805420,894.900085 
	C580.805420,874.014526 580.805420,853.128479 580.805420,831.882812 
	C593.777893,831.882812 606.817383,831.882812 620.091492,831.882812 
	C620.091492,836.524170 620.091492,841.109924 620.091492,846.026917 
	C612.488586,846.026917 605.047546,846.026917 597.230957,846.026917 
	C597.230957,849.048523 597.230957,851.757446 597.230957,854.937256 
	C604.112671,854.937256 611.018433,854.937256 618.313965,854.937256 
	C618.313965,859.849304 618.313965,864.306458 618.024841,869.105530 
z"/>
<path fill="#F9F9F9" opacity="1.000000" stroke="none" 
	d="
M315.001709,895.171753 
	C309.217346,895.172546 303.932587,895.172546 298.377686,895.172546 
	C298.377686,873.901855 298.377686,853.137512 298.377686,831.943359 
	C311.383942,831.943359 324.418457,831.943359 337.754944,831.943359 
	C337.754944,836.446777 337.754944,841.007690 337.754944,846.052673 
	C330.193268,846.052673 322.626953,846.052673 314.719696,846.052673 
	C314.719696,849.109619 314.719696,851.695496 314.719696,854.903931 
	C321.679108,854.903931 328.718170,854.903931 335.853485,854.903931 
	C335.853485,860.091980 335.853485,864.658630 335.853485,869.722900 
	C328.669250,869.722900 321.755951,869.722900 314.613922,869.722900 
	C314.613922,873.479431 314.613922,876.737793 314.613922,880.587891 
	C322.630951,880.587891 330.520142,880.587891 338.672974,880.587891 
	C338.672974,885.587708 338.672974,890.009033 338.672974,895.170959 
	C331.005981,895.170959 323.253662,895.170959 315.001709,895.171753 
z"/>
<path fill="#F7F7F7" opacity="1.000000" stroke="none" 
	d="
M764.526001,887.270874 
	C762.251038,887.274597 760.371338,887.549072 758.601196,887.225098 
	C754.918762,886.551270 752.924133,888.159363 751.986023,891.498901 
	C751.119202,894.584412 749.128601,895.461853 746.028748,895.236755 
	C742.241577,894.961792 738.419189,895.171326 733.764893,895.171326 
	C734.460510,893.027710 734.826355,891.357971 735.522095,889.839233 
	C744.028259,871.270447 752.636658,852.748291 761.063477,834.143738 
	C762.255676,831.511780 763.612549,830.443542 766.597046,830.432678 
	C769.535767,830.422058 770.545166,831.777283 771.613647,834.115417 
	C780.104492,852.695984 788.727234,871.216125 797.285400,889.765930 
	C797.963196,891.234985 798.459412,892.787842 799.356689,895.127502 
	C793.774536,895.127502 788.863220,895.335754 783.995422,894.967529 
	C782.904358,894.885132 781.492004,892.939392 781.048523,891.583069 
	C779.859131,887.945312 777.638489,886.791260 773.947510,887.203613 
	C770.989746,887.534058 767.965576,887.270569 764.526001,887.270874 
M760.752380,869.648987 
	C760.413940,870.705566 760.075439,871.762207 759.706360,872.914490 
	C764.342163,872.914490 768.648621,872.914490 773.512573,872.914490 
	C771.073853,867.394714 768.880981,862.431396 766.354187,856.712158 
	C764.336731,861.334534 762.692688,865.101379 760.752380,869.648987 
z"/>
<path fill="#FAFAFA" opacity="1.000000" stroke="none" 
	d="
M465.001160,831.544800 
	C474.315094,831.544861 483.129181,831.544861 492.320587,831.544861 
	C492.320587,836.380493 492.320587,840.919006 492.320587,845.941833 
	C487.447357,845.941833 482.535400,845.941833 477.153259,845.941833 
	C477.153259,862.476501 477.153259,878.547852 477.153259,894.892578 
	C471.608551,894.892578 466.541229,894.892578 460.963562,894.892578 
	C460.963562,878.746582 460.963562,862.681213 460.963562,846.167969 
	C455.551422,846.167969 450.623718,846.167969 445.418457,846.167969 
	C445.418457,841.157043 445.418457,836.601624 445.418457,831.544739 
	C451.908264,831.544739 458.204803,831.544739 465.001160,831.544800 
z"/>
<path fill="#F7F7F7" opacity="1.000000" stroke="none" 
	d="
M585.839294,956.001831 
	C585.839294,950.218994 585.839294,944.935913 585.839294,939.251465 
	C593.774231,939.251465 601.288696,938.608459 608.645508,939.410950 
	C618.273071,940.461243 625.989563,951.534546 618.271362,962.456055 
	C623.400330,966.856812 624.750549,971.686340 622.453735,978.009766 
	C620.365173,983.759766 616.168213,987.007629 610.069824,987.174805 
	C602.114563,987.392944 594.148865,987.228210 585.839294,987.228210 
	C585.839294,976.764221 585.839294,966.632874 585.839294,956.001831 
M610.796021,974.267456 
	C612.539612,968.330139 608.471985,967.232300 598.058228,968.813843 
	C598.058228,971.178162 598.058228,973.570679 598.058228,976.898254 
	C602.403748,976.224426 606.356506,975.611572 610.796021,974.267456 
M608.624268,952.067871 
	C605.188232,951.248230 601.752197,950.428650 597.788025,949.483032 
	C597.788025,952.078674 597.759583,953.226196 597.796082,954.371582 
	C597.831360,955.477539 597.933594,956.581482 598.001343,957.610229 
	C605.856079,958.603149 609.710144,958.498596 608.624268,952.067871 
z"/>
<path fill="#FCFCFC" opacity="1.000000" stroke="none" 
	d="
M529.440247,831.545288 
	C533.303589,831.315369 532.411621,833.847961 532.415161,835.644470 
	C532.440857,848.780579 532.409241,861.916870 532.396179,875.053101 
	C532.394592,876.676025 532.395996,878.298950 532.395996,880.463806 
	C540.213074,880.463806 547.599976,880.463806 555.308105,880.463806 
	C555.308105,885.542297 555.308105,890.080627 555.308105,894.894714 
	C542.264038,894.894714 529.379150,894.894714 516.236084,894.894714 
	C516.236084,873.950562 516.236084,853.065430 516.236084,831.533630 
	C520.474609,831.533630 524.735596,831.533630 529.440247,831.545288 
z"/>
<path fill="#F4F4F4" opacity="1.000000" stroke="none" 
	d="
M677.000122,962.856323 
	C729.765991,962.856323 782.031921,962.856323 834.637451,962.856323 
	C834.637451,965.110596 834.637451,967.167114 834.637451,969.570984 
	C769.686646,969.570984 704.692139,969.570984 639.421082,969.570984 
	C639.421082,967.502197 639.421082,965.569336 639.421082,962.856323 
	C651.679810,962.856323 664.089966,962.856323 677.000122,962.856323 
z"/>
<path fill="#F2F2F2" opacity="1.000000" stroke="none" 
	d="
M353.000092,963.814697 
	C385.944611,963.815369 418.389099,963.815369 450.990173,963.815369 
	C450.990173,966.313599 450.990173,968.264893 450.990173,970.566223 
	C385.975250,970.566223 321.073547,970.566223 255.754196,970.566223 
	C255.754196,968.550781 255.754196,966.501831 255.754196,963.813965 
	C287.978271,963.813965 320.239166,963.813965 353.000092,963.814697 
z"/>
<path fill="#F6F6F6" opacity="1.000000" stroke="none" 
	d="
M563.312988,962.942993 
	C563.313049,965.594849 563.325500,967.756897 563.311096,969.918884 
	C563.235840,981.232483 555.968750,988.126526 544.191223,988.065369 
	C532.394226,988.004028 525.124329,981.114502 525.059387,969.822021 
	C525.002075,959.852051 525.047424,949.881592 525.047424,939.524536 
	C528.944336,939.524536 532.646545,939.524536 536.949402,939.524536 
	C536.949402,949.410400 536.914124,959.330200 536.962402,969.249573 
	C536.992371,975.400513 541.632568,978.497314 547.342834,976.373108 
	C550.697205,975.125244 551.627441,972.684753 551.593506,969.339661 
	C551.492737,959.398254 551.557434,949.455139 551.557434,939.369019 
	C555.706970,939.369019 559.294861,939.369019 563.312988,939.369019 
	C563.312988,947.205383 563.312988,954.829346 563.312988,962.942993 
z"/>
<path fill="#F8F8F8" opacity="1.000000" stroke="none" 
	d="
M486.065063,975.064941 
	C483.970093,975.065552 482.340424,975.065552 480.304016,975.065552 
	C480.304016,979.235718 480.304016,982.990417 480.304016,987.029175 
	C476.114868,987.029175 472.342407,987.029175 468.199615,987.029175 
	C468.199615,971.324280 468.199615,955.488708 468.199615,939.433167 
	C476.208099,939.433167 484.203888,938.798828 492.054230,939.596313 
	C501.523682,940.558411 506.968079,948.790833 506.184692,959.217224 
	C505.490967,968.450745 498.834290,974.784973 489.524750,975.059143 
	C488.527405,975.088501 487.528503,975.063843 486.065063,975.064941 
M480.090424,952.850464 
	C480.090424,956.442810 480.090424,960.035095 480.090424,963.526123 
	C489.164185,964.752136 492.644531,964.179565 493.274963,960.475403 
	C493.765717,957.592041 493.127136,953.911865 491.594147,951.458008 
	C490.046082,948.979858 482.547485,949.802795 480.090424,952.850464 
z"/>
<path fill="#111111" opacity="1.000000" stroke="none" 
	d="
M679.059509,881.456055 
	C681.432922,879.119385 683.875061,877.129089 686.630798,875.004578 
	C687.041809,876.350647 687.139160,877.830933 687.258911,879.651917 
	C684.074158,878.578796 683.260864,885.607666 679.059509,881.456055 
z"/>
<path fill="#030303" opacity="1.000000" stroke="none" 
	d="
M509.164429,411.095673 
	C458.662537,415.913666 409.270416,413.327454 360.937347,398.259796 
	C357.589264,397.216003 356.239105,395.742889 355.685425,392.242584 
	C353.717468,379.800690 351.306641,367.428833 348.966278,354.493011 
	C412.713928,372.065338 476.295197,369.164276 539.815735,356.950409 
	C603.326477,344.738434 663.463318,323.923279 716.248840,283.944855 
	C718.531799,295.010284 720.172729,305.863739 723.134094,316.344147 
	C725.269348,323.901031 723.006897,328.015656 717.027527,332.634705 
	C678.410828,362.466187 635.025024,382.434601 588.431458,395.907623 
	C562.639099,403.365753 536.362061,408.457306 509.164429,411.095673 
z"/>
<path fill="#050505" opacity="1.000000" stroke="none" 
	d="
M684.787109,443.759857 
	C688.059998,442.236176 687.682922,444.414429 687.707703,446.024933 
	C687.848328,455.171265 686.011353,463.932526 681.681213,471.976013 
	C671.871460,490.197876 656.608826,500.701599 635.885559,501.900146 
	C614.356567,503.145355 597.553772,494.157745 585.623596,476.163300 
	C585.274231,475.636414 585.077332,475.008484 584.600525,473.974945 
	C618.722595,466.188019 652.042297,456.587311 684.787109,443.759857 
z"/>
<path fill="#0D0D0D" opacity="1.000000" stroke="none" 
	d="
M455.875549,113.844025 
	C443.906952,113.864174 432.423126,113.864174 420.939270,113.864174 
	C505.780121,103.698265 588.166565,83.472061 668.594360,53.681126 
	C669.482605,57.421619 670.316833,60.934402 671.288208,65.024704 
	C661.537476,68.288246 652.033325,71.635262 642.426575,74.656342 
	C597.491943,88.787178 552.151123,101.374596 505.484619,108.388794 
	C489.205322,110.835655 472.740479,112.047829 455.875549,113.844025 
z"/>
<path fill="#111111" opacity="1.000000" stroke="none" 
	d="
M760.900513,869.258545 
	C762.692688,865.101379 764.336731,861.334534 766.354187,856.712158 
	C768.880981,862.431396 771.073853,867.394714 773.512573,872.914490 
	C768.648621,872.914490 764.342163,872.914490 759.706360,872.914490 
	C760.075439,871.762207 760.413940,870.705566 760.900513,869.258545 
z"/>
<path fill="#111111" opacity="1.000000" stroke="none" 
	d="
M610.552673,974.633057 
	C606.356506,975.611572 602.403748,976.224426 598.058228,976.898254 
	C598.058228,973.570679 598.058228,971.178162 598.058228,968.813843 
	C608.471985,967.232300 612.539612,968.330139 610.552673,974.633057 
z"/>
<path fill="#111111" opacity="1.000000" stroke="none" 
	d="
M608.769897,952.458374 
	C609.710144,958.498596 605.856079,958.603149 598.001343,957.610229 
	C597.933594,956.581482 597.831360,955.477539 597.796082,954.371582 
	C597.759583,953.226196 597.788025,952.078674 597.788025,949.483032 
	C601.752197,950.428650 605.188232,951.248230 608.769897,952.458374 
z"/>
<path fill="#111111" opacity="1.000000" stroke="none" 
	d="
M480.092468,952.393677 
	C482.547485,949.802795 490.046082,948.979858 491.594147,951.458008 
	C493.127136,953.911865 493.765717,957.592041 493.274963,960.475403 
	C492.644531,964.179565 489.164185,964.752136 480.090424,963.526123 
	C480.090424,960.035095 480.090424,956.442810 480.092468,952.393677 
z"/>
</svg>