<svg width="534" height="751" viewBox="0 0 534 751" fill="none" xmlns="http://www.w3.org/2000/svg">
<path d="M297.289 1.87808C324.875 -0.183273 352.017 -1.51011 378.988 3.20207C386.119 4.44802 393.075 6.98993 399.895 9.52111C401.697 10.1899 403.61 12.8937 403.917 14.9013C407.626 39.0884 411.053 63.3189 414.533 87.5409C419.696 123.47 424.844 159.402 429.997 195.333C432.22 210.827 434.548 226.308 436.581 241.828C437.018 245.166 438.087 246.643 441.56 247.272C459.572 250.539 477.725 253.663 494.462 261.389C503.142 265.396 511.929 270.058 519.111 276.234C533.63 288.719 537.131 309.348 529.449 327.487C521.781 345.594 508.72 359.373 492.91 370.202C477.715 380.611 461.556 389.64 445.613 398.917C438.844 402.855 438.602 402.44 440.675 410.464C442.609 410.821 444.725 411.055 446.752 411.613C458.041 414.724 464.876 423.95 464.916 436.647C465.018 468.644 464.956 500.643 464.96 532.641C464.961 542.225 467.48 544.749 477.069 544.778C479.402 544.785 481.745 544.667 484.065 544.849C488.847 545.224 491.835 548.405 491.868 552.931C491.9 557.419 488.86 560.834 484.15 561.061C479.664 561.276 475.124 561.388 470.664 560.964C457.964 559.755 448.954 549.112 448.926 535.37C448.86 502.872 448.905 470.374 448.883 437.876C448.878 431.305 447.104 429.047 441.045 427.703C431.882 473.064 405.65 501.456 358.413 504.278C320.091 506.568 293.087 486.654 275.813 452.501C264.695 454.15 253.399 455.967 242.063 457.481C197.493 463.435 152.789 465.554 107.967 460.964C83.3821 458.446 58.9866 454.27 36.8533 442.63C28.0213 437.986 19.6754 431.675 12.5682 424.646C-2.50633 409.738 -3.99229 386.281 7.95891 368.671C18.5171 353.114 32.6922 341.354 48.1338 330.983C54.075 326.993 60.0101 322.979 66.128 319.274C68.6993 317.716 69.3165 316.282 68.5646 313.294C53.6661 254.092 38.8932 194.859 24.1015 135.63C20.4336 120.943 16.9651 106.203 13.0227 91.5901C11.8974 87.4191 12.9316 84.7693 15.8339 81.9752C27.5667 70.6802 41.7978 63.4541 56.4634 57.0454C97.9756 38.9049 141.587 27.6129 185.721 18.1971C222.392 10.3735 259.425 4.83937 297.289 1.87808ZM232.21 383.133C258.952 380.542 285.229 375.45 311.022 367.992C357.615 354.519 401.001 334.551 439.618 304.719C445.597 300.1 447.859 295.985 445.724 288.428C442.763 277.948 441.122 267.095 438.839 256.029C386.053 296.008 325.917 316.823 262.406 329.035C198.885 341.249 135.304 344.15 71.5563 326.577C73.8967 339.513 76.3075 351.885 78.2755 364.327C78.8291 367.827 80.1793 369.3 83.5274 370.344C131.86 385.412 181.253 387.998 232.21 383.133ZM407.011 415.997C374.632 428.672 341.313 438.272 307.191 446.059C307.667 447.093 307.864 447.721 308.214 448.248C320.144 466.242 336.947 475.23 358.476 473.984C379.199 472.786 394.462 462.282 404.271 444.06C408.601 436.017 410.438 427.256 410.298 418.109C410.273 416.499 410.65 414.321 407.011 415.997ZM178.95 85.9082C195.331 84.1322 211.795 82.92 228.075 80.4731C274.741 73.4589 320.082 60.8715 365.017 46.7407C374.623 43.7196 384.128 40.3726 393.878 37.1091C392.907 33.0188 392.073 29.506 391.184 25.7655C310.757 55.5564 228.37 75.7826 143.529 85.9485C155.013 85.9485 166.497 85.9485 178.95 85.9082Z" fill="#FEFEFE"/>
<path d="M358.652 642.034C322.751 640.773 292.877 626.627 267.441 603.132C258.656 609.537 250.37 616.533 241.208 622.083C208.574 641.851 173.63 647.528 136.659 637.001C120.554 632.416 106.664 624.174 97.9756 609.086C89.1007 593.675 90.5426 573.084 101.376 559.196C102.159 558.192 103.121 557.33 103.947 556.458C103.947 562.071 103.118 567.66 104.124 572.896C106.052 582.928 112.97 589.193 122.496 592.089C147.402 599.661 167.261 594.139 183.746 574.2C189.79 566.889 195.541 559.302 201.992 552.369C221.498 531.403 242.684 528.781 266.961 544.024C279.254 535.427 292.767 532.264 307.549 536.05C318.359 538.819 326.16 546.097 333.314 554.096C341.741 563.519 349.329 573.778 358.389 582.527C373.355 596.978 399.318 599.538 417.037 589.444C427.395 583.544 431.761 574.073 429.664 562.163C429.498 561.221 429.642 560.226 429.642 559.256C430.042 558.972 430.443 558.689 430.843 558.406C432.117 559.757 433.645 560.945 434.627 562.482C445.905 580.132 443.278 603.924 428.3 619.032C414.626 632.825 397.284 638.592 378.579 640.95C372.156 641.76 365.623 641.699 358.652 642.034Z" fill="#FCFCFC"/>
<path d="M271.628 740.171C270.077 743.641 268.616 746.744 266.798 750.604C253.756 721.491 241.506 692.759 223.536 667.22C234.846 663.406 246.254 660.439 256.858 655.68C264.166 652.401 269.823 652.431 277.119 655.753C287.6 660.524 298.927 663.437 310.156 667.233C294.445 689.537 283.012 714.634 271.628 740.171Z" fill="#FBFAFB"/>
</svg>
