<svg width="668" height="961" viewBox="0 0 668 961" fill="none" xmlns="http://www.w3.org/2000/svg">
<path d="M366.175 1.87808C393.76 -0.183273 420.903 -1.51011 447.873 3.20207C455.004 4.44802 461.961 6.98993 468.781 9.52111C470.583 10.1899 472.495 12.8937 472.803 14.9013C476.511 39.0884 479.938 63.3189 483.418 87.5409C488.582 123.47 493.729 159.402 498.883 195.333C501.105 210.827 503.433 226.308 505.466 241.828C505.903 245.166 506.972 246.643 510.445 247.272C528.458 250.539 546.611 253.663 563.348 261.389C572.027 265.396 580.814 270.058 587.996 276.234C602.516 288.719 606.016 309.348 598.334 327.487C590.666 345.594 577.605 359.373 561.795 370.202C546.6 380.611 530.442 389.64 514.498 398.917C507.729 402.855 507.487 402.44 509.56 410.464C511.494 410.821 513.61 411.055 515.637 411.613C526.926 414.724 533.762 423.95 533.802 436.647C533.903 468.644 533.842 500.643 533.845 532.641C533.846 542.225 536.365 544.749 545.954 544.778C548.287 544.785 550.631 544.667 552.95 544.849C557.732 545.224 560.721 548.405 560.753 552.931C560.786 557.419 557.746 560.834 553.036 561.061C548.549 561.276 544.01 561.388 539.549 560.964C526.849 559.755 517.839 549.112 517.811 535.37C517.746 502.872 517.79 470.374 517.768 437.876C517.764 431.305 515.989 429.047 509.93 427.703C500.767 473.064 474.535 501.456 427.298 504.278C388.976 506.568 361.972 486.654 344.698 452.501C333.58 454.15 322.285 455.967 310.949 457.481C266.379 463.435 221.675 465.554 176.853 460.964C152.267 458.446 127.872 454.27 105.739 442.63C96.9067 437.986 88.5608 431.675 81.4536 424.646C66.379 409.738 64.8931 386.281 76.8443 368.671C87.4025 353.114 101.578 341.354 117.019 330.983C122.96 326.993 128.895 322.979 135.013 319.274C137.585 317.716 138.202 316.282 137.45 313.294C122.551 254.092 107.779 194.859 92.9869 135.63C89.319 120.943 85.8505 106.203 81.9081 91.5901C80.7828 87.4191 81.8169 84.7693 84.7193 81.9752C96.452 70.6802 110.683 63.4541 125.349 57.0454C166.861 38.9049 210.472 27.6129 254.606 18.1971C291.277 10.3735 328.31 4.83937 366.175 1.87808ZM301.095 383.133C327.837 380.542 354.115 375.45 379.907 367.992C426.5 354.519 469.886 334.551 508.503 304.719C514.482 300.1 516.745 295.985 514.61 288.428C511.648 277.948 510.007 267.095 507.724 256.029C454.939 296.008 394.802 316.823 331.291 329.035C267.771 341.249 204.189 344.15 140.442 326.577C142.782 339.513 145.193 351.885 147.161 364.327C147.715 367.827 149.065 369.3 152.413 370.344C200.746 385.412 250.138 387.998 301.095 383.133ZM475.896 415.997C443.518 428.672 410.198 438.272 376.076 446.059C376.553 447.093 376.75 447.721 377.099 448.248C389.029 466.242 405.832 475.23 427.361 473.984C448.084 472.786 463.347 462.282 473.157 444.06C477.487 436.017 479.324 427.256 479.183 418.109C479.158 416.499 479.535 414.321 475.896 415.997ZM247.836 85.9082C264.216 84.1322 280.681 82.92 296.96 80.4731C343.627 73.4589 388.967 60.8715 433.902 46.7407C443.509 43.7196 453.013 40.3726 462.764 37.1091C461.792 33.0188 460.958 29.506 460.07 25.7655C379.642 55.5564 297.256 75.7826 212.415 85.9485C223.899 85.9485 235.382 85.9485 247.836 85.9082Z" fill="#FEFEFE"/>
<path d="M427.538 642.034C391.636 640.773 361.762 626.627 336.327 603.132C327.541 609.537 319.255 616.533 310.093 622.083C277.459 641.851 242.515 647.528 205.544 637.001C189.44 632.416 175.549 624.174 166.861 609.086C157.986 593.675 159.428 573.084 170.262 559.196C171.044 558.192 172.007 557.33 172.832 556.458C172.832 562.071 172.003 567.66 173.01 572.896C174.937 582.928 181.856 589.193 191.381 592.089C216.287 599.661 236.147 594.139 252.631 574.2C258.675 566.889 264.427 559.302 270.878 552.369C290.384 531.403 311.57 528.781 335.846 544.024C348.14 535.427 361.653 532.264 376.434 536.05C387.244 538.819 395.045 546.097 402.2 554.096C410.626 563.519 418.214 573.778 427.274 582.527C442.24 596.978 468.203 599.538 485.923 589.444C496.281 583.544 500.647 574.073 498.549 562.163C498.384 561.221 498.527 560.226 498.527 559.256C498.928 558.972 499.328 558.689 499.728 558.406C501.003 559.757 502.53 560.945 503.512 562.482C514.79 580.132 512.164 603.924 497.186 619.032C483.512 632.825 466.169 638.592 447.465 640.95C441.042 641.76 434.508 641.699 427.538 642.034Z" fill="#FCFCFC"/>
<path d="M340.513 740.171C338.963 743.641 337.502 746.744 335.684 750.604C322.641 721.491 310.392 692.759 292.421 667.22C303.731 663.406 315.14 660.439 325.744 655.68C333.051 652.401 338.708 652.431 346.005 655.753C356.485 660.524 367.812 663.437 379.041 667.233C363.331 689.537 351.897 714.634 340.513 740.171Z" fill="#FBFAFB"/>
<path d="M470.466 853.194C468.296 850.907 466.16 848.584 463.944 846.342C461.887 844.261 459.744 842.266 456.979 839.595C456.979 849.193 456.979 858.046 456.979 866.99C451.175 866.99 445.924 866.99 440.532 866.99C440.532 845.685 440.532 824.646 440.532 803.702C444.482 802.401 446.961 803.854 449.385 806.652C456.35 814.689 463.571 822.502 471.118 830.877C475.262 826.443 479.297 822.156 483.299 817.838C486.69 814.179 489.837 810.262 493.49 806.892C495.646 804.904 498.577 803.758 502.209 801.613C502.209 824.533 502.209 845.596 502.209 866.957C496.884 866.957 491.525 866.957 486.104 866.957C485.682 858.855 485.273 851.005 484.797 841.883C482.201 843.773 480.463 845.038 478.259 846.763C475.35 849.213 472.908 851.204 470.466 853.194Z" fill="#F9F9F9"/>
<path d="M24.0392 820.396C16.988 826.709 14.9886 836.723 19.0178 844.706C22.0764 850.766 27.332 853.056 33.8372 852.872C39.0461 852.725 43.5254 851.251 45.9537 845.197C41.4 845.197 37.3423 845.197 33.0279 845.197C33.0279 840.294 33.0279 835.888 33.0279 831.248C43.0021 831.248 52.7759 831.248 62.5406 831.248C65.989 851.022 55.4492 864.213 40.97 867.212C21.2678 871.294 3.94216 860.564 0.614248 842.022C-2.89668 822.461 8.97742 805.342 27.6889 802.989C45.154 800.792 60.3401 810.526 61.5546 825.216C56.9054 825.216 52.2906 825.283 47.6814 825.152C46.8701 825.129 45.9218 824.423 45.3089 823.775C38.9305 817.03 32.974 815.981 24.0392 820.396Z" fill="#F7F7F7"/>
<path d="M667.33 840.084C667.33 849.381 667.33 858.178 667.33 866.838C663.14 868.024 660.302 866.818 657.69 863.899C649.156 854.367 640.437 845 631.789 835.569C631.025 836.127 630.261 836.684 629.497 837.241C629.497 847.068 629.497 856.894 629.497 866.997C623.646 866.997 618.387 866.997 612.756 866.997C612.756 845.96 612.756 824.911 612.756 803.748C616.331 802.287 619.016 803.63 621.438 806.311C630.247 816.064 639.108 825.77 647.95 835.494C648.736 834.885 649.522 834.275 650.309 833.666C650.309 823.819 650.309 813.971 650.309 803.868C656.232 803.868 661.644 803.868 667.33 803.868C667.33 815.968 667.33 827.776 667.33 840.084Z" fill="#F8F8F8"/>
<path d="M188.953 827.607C191.255 829.795 193.305 831.737 195.999 834.29C195.999 823.854 195.999 814.08 195.999 803.955C201.78 803.955 207.011 803.955 212.604 803.955C212.604 824.747 212.604 845.646 212.604 866.833C209.305 868.038 206.669 867.081 204.029 864.452C194.76 855.223 185.301 846.186 175.06 836.248C175.06 847.188 175.06 857.048 175.06 867.076C169.192 867.076 163.915 867.076 158.392 867.076C158.392 845.845 158.392 824.786 158.392 801.943C161.957 803.763 165.059 804.624 167.176 806.561C174.535 813.293 181.553 820.398 188.953 827.607Z" fill="#FBFBFB"/>
<path d="M409.5 841.19C402.426 841.532 395.641 841.532 388.593 841.532C388.593 845.494 388.593 848.9 388.593 852.704C396.441 852.704 404.202 852.704 412.319 852.704C412.319 857.622 412.319 862.157 412.319 866.984C399.096 866.984 385.854 866.984 372.281 866.984C372.281 846.099 372.281 825.213 372.281 803.967C385.253 803.967 398.293 803.967 411.567 803.967C411.567 808.609 411.567 813.194 411.567 818.111C403.964 818.111 396.523 818.111 388.706 818.111C388.706 821.133 388.706 823.842 388.706 827.022C395.588 827.022 402.494 827.022 409.789 827.022C409.789 831.934 409.789 836.391 409.5 841.19Z" fill="#FAFAFA"/>
<path d="M106.477 867.256C100.693 867.257 95.408 867.257 89.8531 867.257C89.8531 845.986 89.8531 825.222 89.8531 804.028C102.859 804.028 115.894 804.028 129.23 804.028C129.23 808.531 129.23 813.092 129.23 818.137C121.669 818.137 114.102 818.137 106.195 818.137C106.195 821.194 106.195 823.78 106.195 826.988C113.155 826.988 120.194 826.988 127.329 826.988C127.329 832.176 127.329 836.743 127.329 841.807C120.145 841.807 113.231 841.807 106.089 841.807C106.089 845.564 106.089 848.822 106.089 852.672C114.106 852.672 121.996 852.672 130.148 852.672C130.148 857.672 130.148 862.093 130.148 867.255C122.481 867.255 114.729 867.255 106.477 867.256Z" fill="#F9F9F9"/>
<path d="M556.001 859.355C553.727 859.359 551.847 859.633 550.077 859.309C546.394 858.636 544.4 860.244 543.461 863.583C542.595 866.669 540.604 867.546 537.504 867.321C533.717 867.046 529.895 867.256 525.24 867.256C525.936 865.112 526.302 863.442 526.998 861.924C535.504 843.355 544.112 824.833 552.539 806.228C553.731 803.596 555.088 802.528 558.073 802.517C561.011 802.506 562.021 803.862 563.089 806.2C571.58 824.78 580.203 843.3 588.761 861.85C589.439 863.319 589.935 864.872 590.832 867.212C585.25 867.212 580.339 867.42 575.471 867.052C574.38 866.969 572.967 865.024 572.524 863.667C571.335 860.03 569.114 858.876 565.423 859.288C562.465 859.618 559.441 859.355 556.001 859.355ZM552.228 841.733C551.889 842.79 551.551 843.847 551.182 844.999C555.818 844.999 560.124 844.999 564.988 844.999C562.549 839.479 560.356 834.516 557.83 828.797C555.812 833.419 554.168 837.186 552.228 841.733Z" fill="#F7F7F7"/>
<path d="M256.477 803.629C265.791 803.629 274.605 803.629 283.796 803.629C283.796 808.465 283.796 813.003 283.796 818.026C278.923 818.026 274.011 818.026 268.629 818.026C268.629 834.561 268.629 850.632 268.629 866.977C263.084 866.977 258.017 866.977 252.439 866.977C252.439 850.831 252.439 834.766 252.439 818.252C247.027 818.252 242.099 818.252 236.894 818.252C236.894 813.241 236.894 808.686 236.894 803.629C243.384 803.629 249.68 803.629 256.477 803.629Z" fill="#FAFAFA"/>
<path d="M377.315 928.086C377.315 922.303 377.315 917.02 377.315 911.336C385.25 911.336 392.764 910.693 400.121 911.495C409.749 912.546 417.465 923.619 409.747 934.54C414.876 938.941 416.226 943.771 413.929 950.094C411.841 955.844 407.644 959.092 401.545 959.259C393.59 959.477 385.624 959.313 377.315 959.313C377.315 948.849 377.315 938.717 377.315 928.086ZM402.271 946.352C404.015 940.415 399.947 939.317 389.534 940.898C389.534 943.263 389.534 945.655 389.534 948.983C393.879 948.309 397.832 947.696 402.271 946.352ZM400.1 924.152C396.664 923.333 393.228 922.513 389.263 921.567C389.263 924.163 389.235 925.311 389.272 926.456C389.307 927.562 389.409 928.666 389.477 929.695C397.332 930.688 401.186 930.583 400.1 924.152Z" fill="#F7F7F7"/>
<path d="M320.916 803.63C324.779 803.4 323.887 805.932 323.891 807.729C323.916 820.865 323.885 834.001 323.872 847.137C323.87 848.76 323.871 850.383 323.871 852.548C331.689 852.548 339.075 852.548 346.784 852.548C346.784 857.627 346.784 862.165 346.784 866.979C333.739 866.979 320.855 866.979 307.712 866.979C307.712 846.035 307.712 825.15 307.712 803.618C311.95 803.618 316.211 803.618 320.916 803.63Z" fill="#FCFCFC"/>
<path d="M468.476 934.941C521.241 934.941 573.507 934.941 626.113 934.941C626.113 937.195 626.113 939.251 626.113 941.655C561.162 941.655 496.168 941.655 430.897 941.655C430.897 939.587 430.897 937.654 430.897 934.941C443.155 934.941 455.565 934.941 468.476 934.941Z" fill="#F4F4F4"/>
<path d="M144.476 935.899C177.42 935.9 209.865 935.9 242.466 935.9C242.466 938.398 242.466 940.349 242.466 942.651C177.451 942.651 112.549 942.651 47.2296 942.651C47.2296 940.635 47.2296 938.586 47.2296 935.898C79.4537 935.898 111.715 935.898 144.476 935.899Z" fill="#F2F2F2"/>
<path d="M354.788 935.027C354.788 937.679 354.801 939.841 354.787 942.003C354.711 953.317 347.444 960.211 335.667 960.15C323.87 960.088 316.6 953.199 316.535 941.906C316.478 931.936 316.523 921.966 316.523 911.609C320.42 911.609 324.122 911.609 328.425 911.609C328.425 921.495 328.39 931.415 328.438 941.334C328.468 947.485 333.108 950.582 338.818 948.457C342.173 947.21 343.103 944.769 343.069 941.424C342.968 931.483 343.033 921.539 343.033 911.453C347.182 911.453 350.77 911.453 354.788 911.453C354.788 919.29 354.788 926.914 354.788 935.027Z" fill="#F6F6F6"/>
<path d="M277.54 947.149C275.446 947.15 273.816 947.15 271.779 947.15C271.779 951.32 271.779 955.075 271.779 959.114C267.59 959.114 263.818 959.114 259.675 959.114C259.675 943.409 259.675 927.573 259.675 911.518C267.684 911.518 275.679 910.883 283.53 911.681C292.999 912.643 298.444 920.875 297.66 931.302C296.966 940.535 290.31 946.869 281 947.144C280.003 947.173 279.004 947.148 277.54 947.149ZM271.566 924.935C271.566 928.527 271.566 932.119 271.566 935.611C280.64 936.837 284.12 936.264 284.75 932.56C285.241 929.676 284.603 925.996 283.07 923.542C281.522 921.064 274.023 921.887 271.566 924.935Z" fill="#F8F8F8"/>
</svg>
